PathFileType	4	(X/Y/Z)	52_2_62_p1_0-221_filt_butterworth.trc
DataRate	CameraRate	NumFrames	NumMarkers	Units	OrigDataRate	OrigDataStartFrame	OrigNumFrames
46.0	46.0	6	27	m	46.0	165	221
Frame#	Time	RHip			RKnee			RAnkle			RBigToe			RSmallToe			RHeel			LHip			LKnee			LAnkle			LBigToe			LSmallToe			LHeel			Neck			Head			Nose			RShoulder			RElbow			RWrist			RThumb			RIndex			RPinky			LShoulder			LElbow			LWrist			LThumb			LIndex			LPinky			
		X1	Y1	Z1	X2	Y2	Z2	X3	Y3	Z3	X4	Y4	Z4	X5	Y5	Z5	X6	Y6	Z6	X7	Y7	Z7	X8	Y8	Z8	X9	Y9	Z9	X10	Y10	Z10	X11	Y11	Z11	X12	Y12	Z12	X13	Y13	Z13	X14	Y14	Z14	X15	Y15	Z15	X16	Y16	Z16	X17	Y17	Z17	X18	Y18	Z18	X19	Y19	Z19	X20	Y20	Z20	X21	Y21	Z21	X22	Y22	Z22	X23	Y23	Z23	X24	Y24	Z24	X25	Y25	Z25	X26	Y26	Z26	X27	Y27	Z27	
165	3.5869565217391304	0.24699544320858824	0.5096226769443021	0.47706825276462667	0.14728262526464633	0.6661481046559802	0.9006846014192657	0.05894768027452643	0.7683645300301087	1.272565887007861	0.0068166427626807505	0.6199440845966115	1.3196861370472082	0.07497098111243482	0.6206165472103207	1.3271466045322216	0.020042834666180915	0.8850934509388554	1.3253453788401064	0.058658459092279014	0.5247633104835878	0.44019037657836757	-0.060175098663086866	0.6909546171382288	0.8567775227917225	-0.13604112408545535	0.7752677261178023	1.2311306598833032	-0.139766333948683	0.6120707154066839	1.2706304227609737	-0.19685925824621936	0.653475007816551	1.2579745392003616	-0.13092855401905923	0.8316121759659686	1.2833554604740864	0.2558281992405819	0.4368545261980364	-0.01513518815796637	0.30996412151599484	0.33766439055448055	-0.24847357752615093	0.2739335004316299	0.3393206381899416	-0.10920817841590622	0.37571343150025444	0.4406182574037732	0.10873591065779142	0.3557202126748082	0.5450988449659467	0.3927459929470738	0.2888459635059824	0.502872835944678	0.6194488132569711	0.21215224735672533	0.46858424402375226	0.7029193427249709	0.22551575369714605	0.5177539555114203	0.7484617173857671	0.2534818719797114	0.5429967115269512	0.747429718703508	0.08675806199421737	0.48155845876347064	0.021024694140729282	-0.0004256390034164817	0.4653148125828559	0.2776189095050198	-0.0378100204218846	0.4857002285533852	0.5077434735379772	-0.01573969892540548	0.4501767792484019	0.6115837223878786	-0.04659833331101505	0.46104522982352963	0.6610787783665664	-0.0914428886006104	0.5035255090700061	0.6264835915058176
166	3.608695652173913	0.24698831519131725	0.5095832357051365	0.4770762414288584	0.14733976238869076	0.6667464849910759	0.9018117706819468	0.05894661892578254	0.7683970234348354	1.2725862440286018	0.006808088016480935	0.6199677442542022	1.3197393434657234	0.07497139020052578	0.620636305056219	1.3271593920111247	0.0198171183212475	0.8848462392031657	1.3253305007035225	0.059009295913414764	0.5246172521325961	0.43911763741688054	-0.06101814050008813	0.6905337979929673	0.8557156500071321	-0.13585028368884425	0.7750494693408136	1.2292410026686014	-0.139667731861038	0.6119125149707597	1.2687177690855682	-0.19692806604108012	0.6535179142864936	1.2579766946909514	-0.13113602298633542	0.832174809275265	1.2834281464589754	0.25584307815362295	0.4368408855186639	-0.014966409585755984	0.30996270068320575	0.33768381867907515	-0.2484969170618717	0.2739410626836337	0.33930526312898884	-0.10917957239851407	0.3767139051345372	0.44406028608613846	0.10880738480652202	0.355761743360848	0.5451234962268183	0.3925561069000315	0.28869542876310217	0.5026604535687992	0.6193292162801612	0.21218625789556197	0.4686343926866003	0.7029204217185113	0.2262344708066587	0.5212160565509302	0.7491433513979577	0.25322969580931687	0.5430246893613282	0.7470118466483365	0.08657625836480873	0.48136681666551495	0.021182549788026524	-0.00040350580499128475	0.46508891775091477	0.27762915536604205	-0.03781404144456718	0.4856927394959718	0.5077645659230188	-0.016659206211896052	0.4514632920904823	0.6155555540064694	-0.04507622570367121	0.4570640311348253	0.6608737626019525	-0.0915644954043758	0.5033676151787565	0.6262515093313791
167	3.630434782608696	0.24699597436855703	0.5096552427293046	0.4771053419708434	0.14745717156741686	0.6677940762490859	0.9037572928978803	0.0589292830524099	0.7684293189940765	1.2726130635816317	0.006806259093307438	0.6199848591785588	1.319837862276443	0.07499267150238634	0.6206215233556753	1.3271342713280776	0.018455196034649384	0.8841813436859769	1.3249931922924199	0.05955070253314364	0.5245800800434246	0.43767999698640064	-0.06100970086026472	0.6901623349028914	0.8549150259536668	-0.13543406080349485	0.774936612188033	1.2280327882795934	-0.13964859495206153	0.6118697444284147	1.2671405447158746	-0.19695249604433968	0.6536972777078194	1.258015647144041	-0.131335552134166	0.8321993634454132	1.283523894417721	0.2557216547457044	0.43698153131892303	-0.013952265144069704	0.3099584206344516	0.3377209033522598	-0.2485105395090577	0.2739322394099631	0.33935102178910675	-0.10916766755183756	0.37826358513515773	0.44938417196518987	0.10892388428811092	0.35593968205005966	0.5451349412428398	0.39137349782302844	0.28895966091264597	0.5027892017797508	0.6193978064015523	0.21233310455343163	0.4688701774878742	0.7029540192927857	0.22736906807183438	0.5265830424466162	0.7504108825305573	0.2556903090096826	0.543214743579215	0.746466080604983	0.08676154710091932	0.4814637355532594	0.021055155876829802	-0.0003660608143876786	0.4648909495022969	0.27763234295951056	-0.03788213963211921	0.4856193174077822	0.5077634536672945	-0.01734472174251037	0.45176292351363195	0.6177642781181037	-0.04289062054457357	0.4508583343459698	0.6613659767073427	-0.09142141382019224	0.5032326514506691	0.6262202424304242
168	3.652173913043478	0.24700770894646729	0.5097830819618839	0.47709854941198915	0.14761570162422014	0.6685798542074122	0.905075330683171	0.05890203027109391	0.7684627186213421	1.2726427177830586	0.006792803785009011	0.620000656088036	1.3200193622302927	0.07500927899420545	0.6205711211542989	1.3271212946932456	0.016384576301655372	0.8832637767598936	1.3243722714933515	0.05993015698749837	0.5246208765695839	0.436806727855501	-0.060978132684501134	0.68999042593341	0.8550490188103097	-0.13519238960372065	0.7749087385326323	1.2278652644093955	-0.1393663710823983	0.6117884386967665	1.266134179520249	-0.19692818257440747	0.6538884665046176	1.258089883797437	-0.13149633729213225	0.8316675754469941	1.2836122967189532	0.25548533487095504	0.4372240255165617	-0.012406777849264645	0.3099575179868886	0.33775331116418483	-0.24851032167093523	0.27391281507910137	0.339457011132188	-0.1092301841999276	0.37929458227974644	0.4529195892869501	0.1090093891641015	0.3561908005990623	0.5451294919251747	0.3895981372894627	0.29029677067034304	0.5032971875334286	0.6197900194096957	0.2125063110019025	0.46910942526214905	0.702952090925187	0.22816856410953046	0.5301581598759633	0.7514098694587037	0.25923549718789873	0.5434931194077576	0.7464409272038517	0.08781166933629705	0.48210123026014834	0.021031299785070148	-0.0003491951955733181	0.4648457817730123	0.27761528493921345	-0.03798440850407672	0.4855783901501552	0.5077713640815755	-0.01773209391626552	0.45165820596579187	0.6197722728152217	-0.041605580951393106	0.4465925538417747	0.6626439616605453	-0.09058631510269023	0.5037418550863739	0.627785555469141
169	3.6739130434782608	0.24697908317876355	0.5096492214824193	0.4769931399988797	0.14776467957738187	0.6687695167605123	0.9051075968082475	0.05889034923636092	0.7684854573123763	1.2726586063574894	0.006785061680361027	0.6200008798202372	1.3201451212931061	0.07502989077348476	0.6205077514277775	1.327116800045657	0.015034320472525316	0.88271433616524	1.3239366000835804	0.060029113255624156	0.5246461542592358	0.436700140464539	-0.06151946727885608	0.6903535124328439	0.8566877835804899	-0.13506176024375582	0.7749016635215441	1.2279770807902224	-0.13897106791569125	0.6113764237697005	1.2655459742483741	-0.1968804305139589	0.653925967836805	1.25814334923378	-0.13159952818284876	0.8311796492334925	1.2836950552736073	0.25531944987237254	0.4373936477663173	-0.011382107478159244	0.3099698610125661	0.3377618627720661	-0.24849258440866545	0.2739001569266001	0.33954871393545427	-0.1093839567870577	0.37947257683793684	0.4535479110525477	0.10903238702902635	0.35634145406905027	0.5451437879396942	0.38847235815661874	0.2922533145199644	0.5037259003683453	0.6202801253667689	0.2125971828375371	0.4691835359006899	0.702922592820108	0.22834801475466038	0.5307539046109886	0.7517146447894999	0.2610723478287714	0.5436537986906214	0.7472401900728411	0.08938922788470732	0.48303551517461213	0.02120698558791679	-0.0003430107520023467	0.464866878219233	0.2775970211913764	-0.03806816261503208	0.4855953727728043	0.5077882593786894	-0.01799414854011244	0.4520355643087369	0.6220239927408526	-0.04153289978955713	0.44565302856518185	0.6636875947978164	-0.08935953656859748	0.5051973352182957	0.631308647757421
170	3.695652173913044	0.24690058155494754	0.5091833161689923	0.4769593083073404	0.14784700725285566	0.6686811212037002	0.90502025958703	0.058898932066388604	0.7684819883812124	1.2726622416740176	0.006804970227301994	0.6199415918491983	1.3201475579924162	0.07508897255968446	0.620446554206828	1.3270866167463977	0.014837451914833513	0.8827175036724336	1.3238467104022635	0.06000355705022696	0.5246492476887217	0.4368603994474805	-0.06250835800095728	0.691632173886124	0.8601309049706648	-0.1349279098580619	0.7749329561727389	1.2278922989903818	-0.13882674098680306	0.6106898568867197	1.2652594718115702	-0.19683622879673082	0.6538866632215075	1.258164455459348	-0.1316415237093202	0.8311604326778294	1.2837837176926699	0.2552865592178093	0.43742847752651903	-0.011206755599592293	0.3099867364307158	0.33775252739331985	-0.24845989129780457	0.2738710320262845	0.3395731421697245	-0.10946399726319189	0.3793529690051363	0.45314910276416187	0.1090285152208695	0.3563552520425192	0.545171739923079	0.3883315786476711	0.2935062259907042	0.5037831327766231	0.6205305730386246	0.21273735808869068	0.46892489530369386	0.7031514776883907	0.22827302837037983	0.5302843904733078	0.7516673102415712	0.26110606344018117	0.5436217897014654	0.7480747848380386	0.09041793821141426	0.4836290882419742	0.021494801115609044	-0.00035111722839192806	0.4648128898310848	0.27757478942575164	-0.03811506752186086	0.48558011142182445	0.5077250053750242	-0.01807100527418347	0.45266803119761106	0.6230477876626052	-0.04180400681120335	0.4459851493372791	0.6639862858990081	-0.08873384612600194	0.5066855638802573	0.6341273218612604
